<?xml version="1.0" encoding="UTF-8"?>
<svg xmlns="http://www.w3.org/2000/svg" xmlns:xlink="http://www.w3.org/1999/xlink" width="167.303pt" height="157.061pt" viewBox="0 0 167.303 157.061" version="1.2">
<g id="surface1">
<path style=" stroke:none;fill-rule:nonzero;fill:rgb(90.588379%,11.764526%,45.097351%);fill-opacity:1;" d="M 141.023438 82.894531 C 136.164062 82.578125 134.265625 88.941406 139.117188 90.632812 C 141.011719 91.296875 142.546875 90.328125 143.167969 88.519531 C 143.996094 86.101562 143.40625 84.046875 141.023438 82.894531 M 113.410156 121.433594 C 107.988281 116.464844 104.527344 109.320312 102.398438 102.367188 C 101.511719 99.484375 100.472656 94.941406 103.949219 93.464844 C 106.460938 92.394531 110.054688 92.320312 112.386719 93.640625 C 114.664062 94.925781 118.425781 96.425781 119.496094 92.703125 C 120.519531 89.136719 116.394531 86.910156 115.757812 83.8125 C 118.910156 83.792969 121.0625 85.652344 123.15625 87.765625 C 125.125 89.753906 127.988281 92.59375 131.074219 91.269531 C 134.269531 89.898438 134.941406 85.472656 134.210938 82.496094 C 133.488281 79.550781 131.332031 77.714844 128.632812 76.554688 C 125.960938 75.402344 123.0625 74.894531 120.351562 73.84375 C 118.242188 73.027344 113.082031 69.542969 116.078125 66.984375 C 118.054688 65.300781 123.078125 66.128906 125.417969 66.457031 C 129.113281 66.972656 132.738281 67.871094 136.445312 68.316406 C 142.414062 69.035156 148.824219 67.570312 151.566406 61.660156 C 153.839844 56.773438 153.011719 49.550781 149.101562 45.6875 C 147.085938 43.695312 144.347656 42.871094 141.578125 43.550781 C 138.519531 44.304688 136.523438 46.617188 134.296875 48.65625 C 129.648438 52.90625 123.671875 56.125 117.359375 56.789062 C 113.882812 57.15625 110.734375 56.863281 108.019531 54.441406 C 106.265625 52.875 104.574219 49.640625 106.199219 47.414062 C 107.519531 45.601562 110.414062 45.59375 112.40625 45.675781 C 115.605469 45.808594 116.453125 43.132812 116.550781 40.226562 C 119.613281 46.585938 129.863281 42.445312 127.597656 35.878906 C 126.585938 32.949219 123.175781 31.980469 120.527344 33.273438 C 118.273438 34.375 116.796875 36.847656 116.261719 39.230469 C 115.433594 36.515625 114.410156 33.863281 111.835938 32.390625 C 109.152344 30.855469 108.980469 29.507812 110.804688 27.042969 C 112.804688 24.347656 113.566406 20.996094 113.226562 17.660156 C 112.953125 15.003906 111.753906 12.984375 110.492188 10.710938 C 108.277344 6.71875 105.417969 2.902344 100.296875 3.667969 C 97.480469 4.089844 94.835938 5.699219 93.054688 7.902344 C 91.09375 10.324219 90.730469 12.929688 90.40625 15.9375 C 89.714844 22.332031 87.550781 28.96875 84.507812 34.625 C 81.867188 39.527344 77.691406 45.332031 71.882812 46.585938 C 64.035156 48.277344 66.511719 38.5 65.246094 34.273438 C 63.695312 29.074219 57.582031 27.535156 54.042969 31.789062 C 49.472656 37.28125 56.691406 41.191406 58.21875 46.160156 C 59.800781 51.304688 56.980469 60.316406 50.179688 57.324219 C 44.433594 54.796875 42.796875 48.320312 39.457031 43.492188 C 36.546875 39.28125 32.238281 34.621094 27.050781 33.332031 C 22.363281 32.160156 17.449219 34.507812 15.558594 38.914062 C 13.714844 43.210938 14.425781 48.871094 17.390625 52.496094 C 21.449219 57.464844 27.773438 57.707031 33.671875 57.304688 C 38.636719 56.964844 44.851562 57.183594 47.503906 62.226562 C 48.75 64.601562 49.203125 67.285156 46.34375 68.46875 C 43.976562 69.449219 40.804688 69.191406 38.410156 68.46875 C 33.695312 67.042969 30.589844 60.726562 25.089844 63.082031 C 20.367188 65.101562 20.25 72.332031 21.527344 76.476562 C 24.960938 87.640625 41.992188 72.839844 49.027344 79.324219 C 53.933594 83.84375 45.441406 88.894531 41.976562 90.472656 C 38.035156 92.273438 32.125 93.714844 33.351562 99.355469 C 33.886719 101.804688 35.785156 103.992188 38.441406 103.917969 C 41.160156 103.839844 43.386719 101.609375 45.273438 99.898438 C 47.023438 98.316406 49.992188 94.960938 52.671875 96.289062 C 55.734375 97.808594 53.246094 100.984375 51.910156 102.71875 C 49.824219 105.429688 48.761719 108.582031 46.910156 111.398438 C 45.546875 113.476562 43.542969 115.050781 41.511719 116.433594 C 37.34375 119.265625 32.074219 121.40625 29.164062 125.722656 C 25.636719 130.960938 26.796875 137.699219 31.699219 141.558594 C 35.871094 144.847656 42.542969 146.113281 46.816406 142.234375 C 49.1875 140.082031 49.339844 137.007812 49.148438 134 C 48.945312 130.753906 48.820312 127.554688 49.046875 124.296875 C 49.421875 118.898438 50.972656 113.867188 53.765625 109.21875 C 55.960938 105.574219 61.277344 101.28125 65.851562 103.367188 C 69.199219 104.890625 66.945312 108.695312 65.734375 110.855469 C 64.285156 113.441406 63.261719 116.210938 63.042969 119.191406 C 62.746094 123.246094 63.820312 129.417969 69.019531 129.097656 C 71.105469 128.96875 72.714844 128.726562 74.296875 127.164062 C 76.53125 124.957031 76.035156 122.222656 75.1875 119.523438 C 74.191406 116.363281 72.828125 111.984375 74.597656 108.867188 C 76.089844 106.246094 79.015625 104.570312 81.738281 103.457031 C 86.691406 101.4375 93.71875 100.660156 97.589844 105.136719 C 101.4375 109.589844 101.109375 117.144531 101.113281 122.625 C 101.113281 129.875 100.101562 136.800781 104.300781 143.199219 C 105.992188 145.785156 108.773438 148.675781 111.929688 149.410156 C 114.402344 149.984375 117.742188 149.414062 120.089844 148.605469 C 125.578125 146.71875 128.957031 141.414062 126.949219 135.640625 C 124.832031 128.800781 118.316406 125.929688 113.410156 121.433594 M 160.617188 71.65625 C 158.347656 68.71875 153.058594 68.746094 149.761719 69.019531 C 148.816406 69.097656 145.253906 69.132812 144.863281 70.402344 C 144.386719 71.953125 147.839844 72.332031 148.691406 72.859375 C 150.578125 74.035156 150.597656 76.328125 151.78125 78.0625 C 152.976562 79.8125 155.050781 80.769531 157.148438 80.183594 C 160.480469 79.25 162.972656 74.664062 160.617188 71.65625 M 122.988281 95.265625 C 120.214844 94.75 116.570312 95.261719 116.777344 98.714844 C 116.929688 101.269531 118.035156 102.792969 120.175781 104.070312 C 121.59375 104.917969 121.847656 105.074219 121.722656 106.664062 C 121.613281 108.042969 121.507812 109.152344 122.175781 110.429688 C 123.347656 112.664062 125.65625 114.800781 128.0625 115.585938 C 133.976562 117.515625 139.230469 112.453125 136.960938 106.335938 C 134.917969 100.835938 128.039062 97.265625 122.988281 95.265625 M 19.488281 62.136719 C 21.402344 61.355469 23.59375 62.585938 25.535156 62.117188 C 28.789062 61.335938 24.460938 59.195312 23.257812 58.765625 C 18.363281 57.019531 9.886719 54.332031 5.070312 57.5 C 0.871094 60.261719 3.546875 66.582031 7.746094 67.816406 C 9.871094 68.441406 12.679688 68.195312 14.527344 66.929688 C 16.441406 65.625 17.289062 63.078125 19.488281 62.136719 M 75.15625 130.304688 C 70.417969 131.8125 75.007812 141.605469 79.519531 139.96875 C 85.09375 137.949219 79.929688 128.8125 75.15625 130.304688 M 21.710938 110.46875 C 18.3125 109.960938 18.710938 106.746094 20.671875 104.84375 C 22.722656 102.851562 25.773438 101.484375 28.574219 101.011719 C 29.648438 100.828125 31.578125 100.511719 32.34375 101.550781 C 33.320312 102.882812 31.667969 104.367188 30.941406 105.3125 C 28.996094 107.871094 25.191406 110.988281 21.710938 110.46875 "/>
<path style=" stroke:none;fill-rule:nonzero;fill:rgb(100%,100%,100%);fill-opacity:1;" d="M 93.503906 89.863281 L 93.523438 89.859375 C 93.308594 91.761719 95.804688 90.976562 94.960938 89.546875 C 94.457031 89.351562 93.882812 89.472656 93.503906 89.863281 M 97.675781 71.574219 C 97.09375 69.34375 96.851562 65.832031 94.210938 66.496094 C 90.707031 67.402344 92.898438 71.765625 93.996094 74.074219 L 94.003906 74.046875 C 94.507812 75.105469 96.101562 78.335938 93.828125 78.566406 C 91.992188 78.753906 90.824219 75.695312 90.402344 74.164062 C 89.816406 72.019531 89.75 69.496094 87.4375 69.839844 C 85.125 70.1875 86.082031 74.148438 86.859375 76.855469 C 87.511719 79.183594 88.558594 82.191406 89.964844 83.3125 C 91.976562 84.921875 96.007812 83.425781 97.410156 81.839844 C 99.941406 78.976562 98.621094 75.175781 97.675781 71.574219 M 87.121094 92.089844 C 86.820312 92.113281 86.597656 92.113281 86.453125 92.097656 C 86.210938 92.0625 86.003906 91.980469 85.839844 91.859375 C 85.730469 91.773438 85.699219 91.679688 85.738281 91.574219 C 85.785156 91.460938 85.859375 91.355469 85.96875 91.257812 C 86.234375 91.046875 86.4375 90.890625 86.570312 90.792969 C 86.664062 90.714844 86.738281 90.632812 86.792969 90.550781 C 86.890625 90.40625 86.921875 90.28125 86.886719 90.171875 C 86.847656 90.050781 86.714844 89.988281 86.492188 89.992188 C 86.402344 89.992188 86.269531 90.007812 86.085938 90.035156 C 85.902344 90.0625 85.761719 90.074219 85.664062 90.066406 C 85.355469 90.054688 85.152344 89.894531 85.054688 89.59375 C 85 89.425781 85.015625 89.265625 85.101562 89.109375 C 85.183594 88.949219 85.304688 88.824219 85.460938 88.722656 C 85.582031 88.648438 85.777344 88.5625 86.046875 88.476562 C 86.398438 88.363281 86.648438 88.214844 86.796875 88.03125 C 86.945312 87.847656 86.964844 87.679688 86.859375 87.53125 C 86.808594 87.46875 86.742188 87.417969 86.65625 87.378906 C 86.453125 87.3125 86.199219 87.324219 85.890625 87.425781 C 85.710938 87.484375 85.484375 87.578125 85.214844 87.710938 C 84.839844 87.890625 84.617188 87.996094 84.546875 88.023438 C 84.09375 88.21875 83.757812 88.417969 83.539062 88.609375 C 83.230469 88.894531 83.070312 89.242188 83.058594 89.652344 C 83.046875 90.128906 83.089844 90.578125 83.191406 90.992188 C 83.296875 91.414062 83.464844 91.828125 83.707031 92.242188 C 83.855469 92.519531 84 92.792969 84.140625 93.066406 C 84.324219 93.378906 84.515625 93.625 84.714844 93.804688 C 84.996094 94.058594 85.324219 94.140625 85.699219 94.050781 C 85.894531 94.003906 86.128906 93.917969 86.394531 93.792969 C 86.613281 93.683594 86.835938 93.574219 87.058594 93.46875 L 87.304688 93.367188 C 87.554688 93.257812 87.800781 93.136719 88.039062 92.996094 C 88.308594 92.839844 88.460938 92.6875 88.5 92.539062 C 88.519531 92.46875 88.488281 92.398438 88.398438 92.328125 C 88.15625 92.140625 87.726562 92.058594 87.121094 92.089844 M 91.695312 89.105469 C 91.421875 89.042969 91.210938 88.980469 91.0625 88.914062 C 90.804688 88.796875 90.660156 88.652344 90.632812 88.476562 C 90.601562 88.28125 90.722656 88.132812 90.996094 88.027344 C 91.050781 88.011719 91.117188 87.992188 91.199219 87.976562 C 91.3125 87.964844 91.382812 87.949219 91.414062 87.941406 C 91.640625 87.882812 91.785156 87.75 91.859375 87.539062 C 91.921875 87.355469 91.921875 87.160156 91.855469 86.953125 C 91.773438 86.710938 91.621094 86.515625 91.386719 86.367188 C 91.28125 86.300781 91.15625 86.253906 91.015625 86.222656 C 90.976562 86.207031 90.84375 86.1875 90.628906 86.152344 C 90.359375 86.117188 90.109375 86.117188 89.882812 86.152344 C 89.765625 86.175781 89.660156 86.214844 89.566406 86.273438 C 89.273438 86.449219 88.921875 86.773438 88.515625 87.253906 C 88.070312 87.773438 87.933594 88.300781 88.101562 88.820312 C 88.222656 89.199219 88.488281 89.5 88.890625 89.722656 C 89.109375 89.847656 89.382812 89.960938 89.71875 90.0625 C 90.007812 90.148438 90.296875 90.230469 90.585938 90.308594 C 90.644531 90.324219 90.71875 90.355469 90.808594 90.398438 C 90.992188 90.488281 91.09375 90.578125 91.121094 90.660156 C 91.148438 90.738281 91.070312 90.792969 90.898438 90.820312 C 90.78125 90.84375 90.660156 90.847656 90.539062 90.832031 C 90.296875 90.808594 90.109375 90.765625 89.972656 90.710938 L 89.765625 90.621094 C 89.457031 90.496094 89.203125 90.496094 88.996094 90.628906 C 88.804688 90.75 88.667969 90.945312 88.585938 91.207031 C 88.488281 91.519531 88.472656 91.785156 88.546875 92.007812 C 88.636719 92.285156 88.902344 92.441406 89.34375 92.476562 C 89.523438 92.488281 89.726562 92.488281 89.953125 92.472656 C 90.535156 92.4375 91.140625 92.316406 91.769531 92.109375 C 92.0625 92.015625 92.28125 91.921875 92.421875 91.824219 C 92.632812 91.6875 92.777344 91.5 92.855469 91.261719 C 93.042969 90.707031 93 90.214844 92.726562 89.789062 C 92.496094 89.433594 92.152344 89.203125 91.695312 89.105469 M 103.117188 66.863281 C 101.34375 67.386719 101.859375 70.769531 103.585938 70.773438 C 105.75 70.753906 105.886719 66.042969 103.117188 66.863281 M 109.316406 77.722656 L 109.308594 77.738281 C 108.148438 77.578125 107.742188 76.425781 106.519531 76.558594 C 106.761719 79.289062 104.207031 81.125 102.238281 80.203125 C 100.917969 79.578125 99.605469 75.792969 99.054688 74.207031 C 97.894531 70.9375 97.179688 65.90625 99.570312 64.269531 C 101.402344 62.980469 105.761719 61.527344 107.820312 62.949219 C 109.363281 64.160156 110.265625 66.015625 110.269531 67.976562 C 110.269531 70.199219 108.25 72.527344 110.652344 74.148438 C 111.046875 74.421875 112.277344 74.71875 112.425781 75.617188 C 112.683594 77.003906 111.074219 77.972656 109.316406 77.722656 M 82.980469 91.539062 C 82.859375 91.324219 82.734375 91.109375 82.613281 90.898438 C 82.582031 90.839844 82.492188 90.65625 82.34375 90.34375 C 82.234375 90.125 82.136719 89.945312 82.046875 89.808594 C 81.84375 89.496094 81.617188 89.339844 81.371094 89.339844 C 81.238281 89.339844 81.125 89.378906 81.035156 89.457031 C 80.839844 89.621094 80.699219 89.886719 80.613281 90.25 C 80.53125 90.609375 80.523438 90.90625 80.597656 91.128906 C 80.636719 91.257812 80.691406 91.414062 80.765625 91.59375 C 80.933594 92.03125 81.015625 92.40625 81.007812 92.714844 C 80.996094 93.042969 80.835938 93.242188 80.53125 93.316406 C 80.222656 93.371094 79.992188 93.410156 79.839844 93.433594 C 79.734375 93.464844 79.648438 93.523438 79.570312 93.609375 C 79.460938 93.746094 79.398438 93.917969 79.394531 94.132812 C 79.386719 94.242188 79.402344 94.425781 79.445312 94.6875 C 79.539062 95.3125 79.878906 95.636719 80.464844 95.660156 C 80.882812 95.683594 81.253906 95.609375 81.578125 95.445312 C 82.019531 95.222656 82.410156 94.832031 82.761719 94.273438 C 83.023438 93.851562 83.191406 93.527344 83.269531 93.300781 C 83.398438 92.925781 83.402344 92.558594 83.285156 92.203125 C 83.222656 92.011719 83.121094 91.789062 82.980469 91.539062 M 96.492188 86.410156 C 96.660156 85.402344 98.75 85.136719 98.246094 83.820312 C 94.378906 82.609375 93.328125 88.820312 96.117188 90.152344 L 96.164062 90.152344 C 98.046875 90.035156 100.992188 89.554688 99.726562 87.675781 C 98.394531 87.90625 96.125 88.710938 96.492188 86.410156 M 103.328125 84.863281 C 103.03125 82.546875 99.695312 84.84375 101.519531 86.554688 C 102.734375 86.519531 103.457031 85.851562 103.328125 84.863281 M 104.742188 87.140625 C 103.367188 89.316406 98.59375 88.492188 99.089844 85.015625 C 99.464844 83.59375 100.625 82.511719 102.074219 82.238281 C 103.953125 81.863281 106.117188 84.964844 104.742188 87.140625 M 109.234375 79.429688 C 107.511719 79.261719 108.238281 81.207031 107.664062 82 C 107.019531 80.539062 104.691406 80.402344 104.519531 82.089844 C 104.449219 82.78125 105.03125 83.832031 105.25 84.742188 C 105.46875 85.652344 105.386719 86.9375 106.210938 87.15625 C 107.164062 86.828125 106.460938 85.039062 106.941406 84.296875 C 107.488281 85.117188 107.640625 86.386719 109.085938 86.191406 C 109.648438 85.605469 108.78125 84.640625 109.066406 84.054688 C 109.769531 84.554688 110.484375 86.128906 111.734375 85.242188 C 111.75 84.429688 111.054688 83.960938 110.714844 83.277344 C 110.09375 82.058594 110.042969 80.554688 109.234375 79.429688 M 66.636719 75.875 L 66.644531 75.875 C 65.242188 76.109375 63.65625 77.859375 62.089844 78.636719 C 60.308594 79.558594 55.988281 79.726562 55.980469 81.828125 C 55.976562 84.550781 59.1875 83.601562 60.992188 84.226562 C 63.355469 85.054688 62.710938 88.667969 63.667969 91.039062 C 64.085938 92.078125 65.101562 93.269531 66.496094 93.117188 C 68.832031 92.863281 68.945312 89.5 68.605469 87.136719 C 68.367188 85.53125 67.460938 83.964844 67.867188 82.5625 C 68.277344 81.160156 69.582031 81.589844 70.195312 80.050781 C 70.035156 77.847656 68.921875 75.492188 66.636719 75.875 M 70.167969 93.292969 C 70 93.097656 69.789062 93.042969 69.53125 93.128906 C 69.324219 93.195312 69.136719 93.328125 68.964844 93.53125 C 68.640625 93.898438 68.484375 94.429688 68.492188 95.117188 C 68.496094 95.609375 68.492188 96.050781 68.488281 96.449219 C 68.476562 96.539062 68.46875 96.621094 68.464844 96.699219 C 68.449219 96.800781 68.425781 96.859375 68.398438 96.867188 C 68.382812 96.871094 68.367188 96.867188 68.351562 96.855469 C 68.285156 96.8125 68.230469 96.726562 68.1875 96.59375 L 68.132812 96.425781 C 68.113281 96.355469 68.101562 96.308594 68.089844 96.277344 C 68.03125 96.128906 67.929688 95.90625 67.785156 95.605469 C 67.515625 95.0625 67.191406 94.671875 66.8125 94.433594 C 66.480469 94.226562 66.132812 94.191406 65.765625 94.328125 C 65.367188 94.472656 65.167969 94.726562 65.164062 95.089844 C 65.160156 95.261719 65.210938 95.417969 65.3125 95.550781 C 65.386719 95.644531 65.492188 95.773438 65.628906 95.933594 C 66.15625 96.539062 66.507812 97.070312 66.683594 97.527344 C 66.761719 97.734375 66.8125 97.945312 66.832031 98.160156 C 66.878906 98.675781 67.15625 99.027344 67.660156 99.21875 C 67.847656 99.292969 68.082031 99.351562 68.363281 99.394531 C 68.605469 99.429688 68.84375 99.464844 69.089844 99.5 C 69.246094 99.523438 69.386719 99.484375 69.503906 99.382812 C 69.617188 99.28125 69.71875 99.144531 69.808594 98.976562 C 69.988281 98.5625 70.109375 98.246094 70.175781 98.03125 C 70.363281 97.472656 70.457031 96.773438 70.441406 95.933594 C 70.398438 94.992188 70.363281 94.28125 70.328125 93.808594 C 70.316406 93.578125 70.265625 93.40625 70.167969 93.292969 M 76.800781 93.207031 C 76.78125 93.050781 76.742188 92.863281 76.683594 92.644531 C 76.632812 92.476562 76.5625 92.332031 76.476562 92.210938 C 76.328125 92.003906 76.191406 91.964844 76.066406 92.09375 C 75.921875 92.234375 75.820312 92.464844 75.753906 92.785156 C 75.742188 92.859375 75.722656 92.953125 75.699219 93.070312 C 75.675781 93.261719 75.691406 93.4375 75.742188 93.597656 C 75.847656 93.921875 76.054688 94.0625 76.359375 94.03125 C 76.542969 94.007812 76.671875 93.90625 76.75 93.722656 C 76.804688 93.578125 76.820312 93.40625 76.800781 93.207031 M 79.246094 94.574219 C 79.359375 94.832031 79.386719 95.105469 79.324219 95.394531 C 79.261719 95.683594 79.121094 95.921875 78.90625 96.109375 C 78.726562 96.265625 78.558594 96.367188 78.40625 96.410156 C 78.199219 96.472656 78.035156 96.4375 77.910156 96.304688 C 77.878906 96.273438 77.789062 96.121094 77.640625 95.847656 C 77.582031 95.753906 77.539062 95.6875 77.511719 95.648438 C 77.457031 95.570312 77.402344 95.515625 77.34375 95.484375 C 77.285156 95.453125 77.222656 95.449219 77.152344 95.464844 C 76.988281 95.515625 76.835938 95.679688 76.695312 95.960938 L 76.539062 96.296875 C 76.40625 96.5625 76.246094 96.753906 76.050781 96.867188 C 75.933594 96.9375 75.808594 96.996094 75.675781 97.039062 C 75.386719 97.144531 75.117188 97.1875 74.859375 97.167969 C 74.527344 97.144531 74.308594 97.015625 74.199219 96.78125 C 74.144531 96.664062 74.128906 96.511719 74.152344 96.328125 C 74.214844 95.773438 74.1875 94.992188 74.078125 93.984375 C 74.023438 93.679688 73.960938 93.214844 73.894531 92.59375 C 73.878906 92.183594 73.96875 91.851562 74.164062 91.601562 C 74.316406 91.40625 74.527344 91.234375 74.804688 91.085938 C 74.839844 91.0625 75.09375 90.945312 75.558594 90.734375 C 75.734375 90.65625 75.90625 90.585938 76.078125 90.519531 C 76.761719 90.253906 77.234375 90.398438 77.5 90.945312 L 78.09375 92.179688 C 78.285156 92.582031 78.574219 93.1875 78.964844 93.992188 C 79.070312 94.203125 79.164062 94.394531 79.246094 94.574219 M 74.523438 70.867188 C 77.375 71.785156 80.632812 70.179688 82.035156 68.601562 C 85.128906 65.167969 83.441406 61.058594 82.296875 56.425781 C 81.648438 53.808594 81.449219 49.6875 78.214844 50.601562 C 74.335938 51.714844 76.769531 56.46875 78.113281 59.289062 L 78.109375 59.25 C 78.800781 60.722656 80.496094 64.394531 77.988281 64.664062 C 76.378906 64.835938 75.375 63.136719 74.640625 61.488281 C 73.519531 58.964844 73.710938 54.03125 70.492188 54.449219 C 66.984375 54.882812 69.476562 62.367188 70.316406 64.707031 C 71.285156 67.265625 72.609375 70.238281 74.523438 70.867188 M 58.441406 68.910156 C 59.261719 70.941406 59.859375 74.027344 61.519531 75.027344 C 62.808594 75.804688 65.84375 75.398438 66.308594 73.832031 C 66.804688 72.03125 64.800781 71.3125 65.351562 69.382812 C 65.640625 68.390625 67.890625 68.347656 67.566406 66.878906 C 67.316406 65.742188 65.242188 66.039062 64.03125 66.082031 C 62.488281 66.179688 61.074219 66.121094 61.011719 64.582031 C 60.949219 63.046875 62.636719 62.296875 64.074219 61.695312 C 65.222656 61.21875 67.628906 60.851562 67.867188 59.320312 C 68.296875 56.546875 64.707031 54.886719 62.898438 55.347656 C 61.269531 55.796875 57.652344 58.777344 56.867188 59.925781 L 56.871094 59.886719 C 55.648438 61.664062 56.289062 63.621094 57.109375 65.613281 C 57.566406 66.695312 57.992188 67.800781 58.441406 68.910156 M 84.316406 57.632812 C 84.777344 60.035156 84.777344 62.320312 85.070312 64.347656 C 85.242188 65.535156 85.824219 66.941406 86.488281 67.183594 C 87.8125 67.679688 89.570312 66.832031 90.707031 66.25 C 91.621094 65.859375 92.34375 65.128906 92.722656 64.214844 C 93.261719 62.03125 91.136719 60.414062 91.8125 58.53125 C 93.636719 59.308594 94.554688 61.207031 96.523438 62.089844 L 96.519531 62.050781 C 97.964844 62.699219 101.121094 63 101.652344 61.285156 C 102.105469 59.839844 100.8125 58.4375 100.265625 57.09375 C 99.546875 55.296875 99.246094 52.625 98.933594 50.082031 C 98.625 47.539062 98.5625 44.84375 96.964844 43.785156 C 94.546875 43.339844 93.457031 46.433594 93.4375 48.621094 C 93.417969 50.246094 93.625 51.660156 92.507812 51.832031 C 91.84375 51.9375 91.242188 51.253906 90.878906 50.921875 C 89.550781 49.714844 87.980469 47.785156 86.273438 47.492188 C 83.480469 47.007812 82.238281 49.109375 82.726562 51.992188 C 82.996094 53.597656 83.925781 55.539062 84.316406 57.632812 M 81.527344 81.9375 C 83.246094 79.398438 81.25 75.839844 78.5 76.601562 C 76.554688 77.144531 74.882812 82.0625 77.128906 83.5625 C 78.441406 84.421875 80.832031 82.976562 81.527344 81.9375 M 72.515625 76.1875 L 72.507812 76.1875 C 73.597656 74.894531 77.097656 72.132812 79.339844 71.816406 C 81.582031 71.5 84.527344 74.164062 85.566406 76.054688 C 86.972656 78.617188 87.175781 82.414062 86.207031 84.574219 C 85.238281 86.734375 81.976562 88.238281 80.375 88.539062 C 73.164062 89.925781 67.984375 81.539062 72.515625 76.1875 M 73.6875 96.039062 C 73.921875 96.769531 73.925781 97.316406 73.703125 97.6875 C 73.570312 97.910156 73.285156 98.097656 72.847656 98.25 C 72.5625 98.339844 72.335938 98.347656 72.167969 98.269531 C 71.996094 98.195312 71.882812 98.019531 71.832031 97.746094 C 71.804688 97.585938 71.757812 97.351562 71.699219 97.035156 C 71.660156 96.765625 71.609375 96.527344 71.550781 96.320312 C 71.410156 95.824219 71.160156 95.210938 70.796875 94.476562 C 70.757812 94.394531 70.726562 94.316406 70.703125 94.238281 C 70.507812 93.636719 70.65625 93.132812 71.140625 92.726562 C 71.285156 92.609375 71.414062 92.535156 71.535156 92.492188 C 71.773438 92.417969 71.996094 92.464844 72.207031 92.632812 C 72.445312 92.824219 72.675781 93.199219 72.898438 93.761719 C 72.988281 93.992188 73.066406 94.214844 73.132812 94.4375 C 73.195312 94.652344 73.253906 94.835938 73.300781 94.980469 C 73.339844 95.097656 73.402344 95.277344 73.492188 95.511719 C 73.582031 95.746094 73.648438 95.921875 73.6875 96.039062 "/>
</g>
</svg>
